<?xml version="1.0" standalone="no"?>
<!DOCTYPE svg PUBLIC "-//W3C//DTD SVG 20010904//EN"
 "http://www.w3.org/TR/2001/REC-SVG-20010904/DTD/svg10.dtd">
<svg version="1.0" xmlns="http://www.w3.org/2000/svg"
 width="477.000000pt" height="477.000000pt" viewBox="0 0 477.000000 477.000000"
 preserveAspectRatio="xMidYMid meet">
<metadata>
Created by potrace 1.11, written by Peter Selinger 2001-2013
</metadata>
<g transform="translate(0.000000,477.000000) scale(0.100000,-0.100000)"
fill="#000000" stroke="none">
<path d="M0 2390 l0 -2360 2385 0 2385 0 0 2360 0 2360 -2385 0 -2385 0 0
-2360z m1765 580 c322 -37 484 -155 553 -402 15 -56 17 -110 14 -503 -1 -247
2 -499 8 -575 10 -131 34 -302 45 -332 7 -17 -83 -25 -324 -30 l-114 -3 -13
45 c-8 25 -14 57 -14 73 0 35 -10 34 -67 -7 -104 -74 -222 -116 -378 -137
-320 -42 -583 86 -655 317 -25 81 -27 214 -5 299 43 163 179 315 351 391 131
58 348 100 574 112 l135 7 3 70 c7 154 -50 257 -160 290 -166 49 -521 39 -766
-22 -34 -9 -65 -13 -68 -10 -10 10 30 319 43 332 14 15 148 48 260 65 164 26
444 35 578 20z m1935 0 c146 -18 240 -41 240 -59 -1 -27 -57 -341 -62 -347 -3
-2 -43 6 -90 20 -128 37 -231 49 -390 44 -122 -3 -149 -7 -185 -26 -60 -31
-83 -65 -83 -122 0 -96 61 -144 300 -237 330 -128 469 -225 541 -376 73 -154
59 -366 -32 -508 -75 -117 -203 -193 -412 -242 -81 -19 -121 -22 -342 -22
-248 0 -320 7 -460 42 -33 8 -61 16 -63 18 -3 3 58 358 62 362 2 2 39 -8 84
-21 144 -43 279 -59 452 -53 222 8 295 36 319 123 29 107 -71 197 -344 309
-210 87 -331 160 -413 249 -108 119 -143 259 -107 429 20 96 67 177 144 250
93 87 191 132 356 162 86 16 370 19 485 5z"/>
<path d="M1625 1949 c-181 -26 -307 -94 -357 -193 -29 -58 -34 -140 -11 -201
44 -117 186 -160 405 -121 72 13 196 64 217 90 5 6 7 100 4 224 l-6 212 -96
-1 c-53 -1 -123 -5 -156 -10z"/>
</g>
</svg>
